#!OML:ASF H:\MichaelJackson\Top Level 1\Subject 1\Session 1\male.ASF
:FULLY-SPECIFIED
:DEGREES
63
root 4.75355 16.8384 -32.6004 8.97718 -2.99661 -3.57204
lowerback -3.78466 1.59556 -2.57585
upperback -0.791195 2.17581 4.1129
thorax 1.04985 1.08532 5.8066
lowerneck -2.5945 -2.17242 -3.29721
upperneck -10.9215 -2.82884 1.15765
head -2.97378 -1.31401 0.987756
rclavicle 5.51627e-015 6.36111e-015
rhumerus -38.5383 2.05862 -82.835
rradius 36.1765
rwrist 16.0027
rhand -23.4026 -20.3526
rfingers 7.12502
rthumb 3.05428 -50.3105
lclavicle 5.51627e-015 6.36111e-015
lhumerus -41.289 -10.7504 102.355
lradius 36.9407
lwrist 8.44883
lhand 4.59369 13.8042
lfingers 7.12502
lthumb 29.9823 41.3946
rfemur -22.2126 -8.55698 23.1921
rtibia 41.0535
rfoot -12.4279 -3.33685
rtoes -22.0533
lfemur -22.6034 5.63338 -19.8723
ltibia 38.0352
lfoot -22.8898 1.36467
ltoes 19.7436
64
root 4.75006 16.8364 -32.5889 9.006 -3.09935 -3.53849
lowerback -3.86325 1.60132 -2.65061
upperback -0.803913 2.18701 4.13749
thorax 1.07554 1.09049 5.87842
lowerneck -2.54017 -2.17767 -3.36403
upperneck -10.9971 -2.83603 1.18791
head -3.00837 -1.31525 1.01129
rclavicle -2.28105e-014 -3.65764e-014
rhumerus -38.608 2.07644 -82.8026
rradius 36.1963
rwrist 16.0994
rhand -23.3601 -20.21
rfingers 7.12502
rthumb 3.09537 -50.1673
lclavicle -2.28105e-014 -3.65764e-014
lhumerus -41.3952 -11.2072 102.609
lradius 37.203
lwrist 8.53268
lhand 5.02449 13.6053
lfingers 7.12502
lthumb 30.3933 41.1207
rfemur -22.0975 -8.20694 22.9838
rtibia 40.9292
rfoot -12.7783 -3.47307
rtoes -21.8186
lfemur -22.545 5.65329 -19.9073
ltibia 37.9934
lfoot -22.9708 1.44871
ltoes 19.7562
65
root 4.74627 16.8341 -32.5773 9.04785 -3.16657 -3.48769
lowerback -3.95205 1.58917 -2.71639
upperback -0.814453 2.17415 4.14858
thorax 1.11298 1.08321 5.93042
lowerneck -2.54091 -2.1751 -3.42628
upperneck -11.0412 -2.83017 1.22237
head -3.02245 -1.31057 1.03378
rclavicle -2.17669e-014 -1.11319e-014
rhumerus -38.6376 2.08677 -82.7918
rradius 36.1998
rwrist 16.1636
rhand -23.3429 -20.092
rfingers 7.12502
rthumb 3.11199 -50.0491
lclavicle -2.17669e-014 -1.11319e-014
lhumerus -41.4904 -11.6587 102.83
lradius 37.4164
lwrist 8.52162
lhand 5.29999 13.1464
lfingers 7.12502
lthumb 30.6561 40.6128
rfemur -21.9561 -7.84955 22.7635
rtibia 40.7382
rfoot -13.1312 -3.85783
rtoes -21.4701
lfemur -22.5134 5.68565 -19.9623
ltibia 37.9641
lfoot -23.058 1.4917
ltoes 19.7357
66
root 4.74219 16.8311 -32.566 9.09585 -3.18753 -3.4208
lowerback -4.04399 1.56638 -2.77737
upperback -0.835377 2.1473 4.15185
thorax 1.14372 1.06926 5.97069
lowerneck -2.52717 -2.17553 -3.4902
upperneck -11.0786 -2.82887 1.25633
head -3.03681 -1.30814 1.05665
rclavicle 4.52732e-014 2.22639e-014
rhumerus -38.6705 2.08086 -82.7863
rradius 36.202
rwrist 16.1776
rhand -23.3613 -20.011
rfingers 7.12502
rthumb 3.09423 -49.9683
lclavicle 4.52732e-014 2.22639e-014
lhumerus -41.6002 -12.1126 103.047
lradius 37.6263
lwrist 8.45917
lhand 5.50786 12.7995
lfingers 7.12502
lthumb 30.8543 40.2287
rfemur -21.7872 -7.50295 22.5368
rtibia 40.4888
rfoot -13.4396 -4.49992
rtoes -21.0545
lfemur -22.5034 5.72615 -20.0333
ltibia 37.9468
lfoot -23.1482 1.48316
ltoes 19.7057
67
root 4.73732 16.8273 -32.5545 9.13445 -3.18203 -3.38113
lowerback -4.13023 1.54471 -2.80065
upperback -0.860199 2.12035 4.1616
thorax 1.16846 1.05557 5.99587
lowerneck -2.48937 -2.18172 -3.55887
upperneck -11.1156 -2.83619 1.29115
head -3.05513 -1.30984 1.08121
rclavicle -4.00054e-014 -3.10104e-014
rhumerus -38.7052 2.05462 -82.7792
rradius 36.1986
rwrist 16.1564
rhand -23.3906 -19.9791
rfingers 7.12502
rthumb 3.0659 -49.9368
lclavicle -4.00054e-014 -3.10104e-014
lhumerus -41.7174 -12.5534 103.257
lradius 37.8065
lwrist 8.32518
lhand 5.6586 12.6211
lfingers 7.12502
lthumb 30.998 40.023
rfemur -21.5691 -7.12465 22.3482
rtibia 40.1879
rfoot -13.6794 -5.40915
rtoes -20.5951
lfemur -22.4935 5.78423 -20.0663
ltibia 37.9401
lfoot -23.2388 1.42929
ltoes 19.6896
68
root 4.73171 16.8232 -32.5434 9.17 -3.14207 -3.34779
lowerback -4.19976 1.509 -2.80066
upperback -0.879337 2.07342 4.16718
thorax 1.19324 1.03175 6.00189
lowerneck -2.4978 -2.18352 -3.62505
upperneck -11.138 -2.83521 1.3317
head -3.06018 -1.3078 1.10604
rclavicle -9.39258e-015 2.06736e-014
rhumerus -38.7033 2.0363 -82.7976
rradius 36.1843
rwrist 16.1253
rhand -23.4175 -20.013
rfingers 7.12502
rthumb 3.03995 -49.9711
lclavicle -9.39258e-015 2.06736e-014
lhumerus -41.7938 -12.9466 103.418
lradius 37.9546
lwrist 8.13778
lhand 5.75478 12.4132
lfingers 7.12502
lthumb 31.0896 39.7976
rfemur -21.3222 -6.75102 22.1813
rtibia 39.8472
rfoot -13.816 -6.54892
rtoes -20.1126
lfemur -22.4922 5.8419 -20.0845
ltibia 37.9436
lfoot -23.3307 1.33645
ltoes 19.6829
